<?xml version="1.0" encoding="UTF-8" standalone="no"?>
<!-- Created with Inkscape (http://www.inkscape.org/) -->

<svg
   width="100mm"
   height="100mm"
   viewBox="0 0 100 100"
   version="1.1"
   id="svg5"
   inkscape:version="1.1.2 (0a00cf5339, 2022-02-04)"
   sodipodi:docname="CleanupChem.svg"
   inkscape:export-filename="/home/esben/git/rdeditor/rdeditor/icon_themes/light/application/CleanupChem.png"
   inkscape:export-xdpi="25.4"
   inkscape:export-ydpi="25.4"
   xmlns:inkscape="http://www.inkscape.org/namespaces/inkscape"
   xmlns:sodipodi="http://sodipodi.sourceforge.net/DTD/sodipodi-0.dtd"
   xmlns="http://www.w3.org/2000/svg"
   xmlns:svg="http://www.w3.org/2000/svg">
  <sodipodi:namedview
     id="namedview7"
     pagecolor="#ffffff"
     bordercolor="#666666"
     borderopacity="1.0"
     inkscape:pageshadow="2"
     inkscape:pageopacity="0.0"
     inkscape:pagecheckerboard="0"
     inkscape:document-units="mm"
     showgrid="false"
     inkscape:zoom="0.77771465"
     inkscape:cx="-114.43786"
     inkscape:cy="532.97183"
     inkscape:window-width="1656"
     inkscape:window-height="1091"
     inkscape:window-x="953"
     inkscape:window-y="162"
     inkscape:window-maximized="0"
     inkscape:current-layer="layer1"
     fit-margin-top="1"
     fit-margin-left="1"
     fit-margin-right="1"
     fit-margin-bottom="1"
     inkscape:snap-global="false" />
  <defs
     id="defs2" />
  <g
     inkscape:label="Layer 1"
     inkscape:groupmode="layer"
     id="layer1"
     transform="translate(-6.9295246,-7.4098469)">
    <g
       id="g847"
       transform="matrix(0.69817785,0.42691922,-0.40355989,0.65997633,41.561364,-10.593692)">
      <path
         sodipodi:type="star"
         style="fill:none;stroke:#000000;stroke-width:29.1024;stroke-linecap:round;stroke-linejoin:round;stroke-miterlimit:4;stroke-dasharray:none"
         id="path882"
         inkscape:flatsided="true"
         sodipodi:sides="6"
         sodipodi:cx="325.11371"
         sodipodi:cy="393.50201"
         sodipodi:r1="193.3239"
         sodipodi:r2="167.42342"
         sodipodi:arg1="-7.4289138e-05"
         sodipodi:arg2="0.52352449"
         inkscape:rounded="0"
         inkscape:randomized="0"
         d="m 518.43761,393.48765 -96.64951,167.43059 -193.3239,0.0144 -96.67439,-167.41622 96.64951,-167.43059 193.3239,-0.0144 z"
         transform="matrix(0.23159139,0,0,0.23159139,-18.436458,-32.440872)"
         inkscape:transform-center-x="2.1453127e-06"
         inkscape:transform-center-y="-2.274917e-06" />
      <path
         id="path1008"
         style="fill:none;stroke:#000000;stroke-width:6.73985;stroke-linecap:round;stroke-linejoin:round;stroke-miterlimit:4;stroke-dasharray:none"
         inkscape:transform-center-x="1.3991331e-06"
         inkscape:transform-center-y="1.1475121e-05"
         d="M 72.62979,31.366955 88.406557,58.688433 M 72.63385,86.012258 41.084369,86.014658 M 25.307599,58.693138 41.080309,31.369315"
         sodipodi:nodetypes="cccccc" />
    </g>
    <path
       class="st0"
       d="m 102.13622,32.695454 -8.618989,63.090974 c -0.344759,3.447594 -3.447594,5.860912 -6.895188,5.860912 H 28.012941 c -3.447594,0 -6.205669,-2.413318 -6.895188,-5.860912 L 12.498768,32.695454"
       id="path851"
       style="stroke-width:5.095;stroke-miterlimit:10;stroke-dasharray:none" />
    <path
       class="st0"
       d="m 97.62299,53.609517 c -3.102835,-2.413316 -7.929466,-2.068556 -10.687542,0.689519 v 0 c -3.102835,3.102835 -8.618985,3.102835 -11.72182,0 v 0 c -3.102835,-3.102835 -8.618986,-3.102835 -11.72182,0 v 0 c -3.102835,3.102835 -8.618986,3.102835 -11.721821,0 v 0 c -3.102834,-3.102835 -8.618985,-3.102835 -11.72182,0 v 0 c -3.102835,3.102835 -8.618985,3.102835 -11.72182,0 v 0 C 25.223512,51.540961 20.74164,51.196201 17.638805,53.609517"
       id="path853"
       style="stroke-width:5.095;stroke-miterlimit:10;stroke-dasharray:none" />
  </g>
  <style
     type="text/css"
     id="style849">
	.st0{fill:none;stroke:#000000;stroke-width:2;stroke-linecap:round;stroke-linejoin:round;stroke-miterlimit:10;}
</style>
</svg>
